<?xml version="1.0" encoding="UTF-8" standalone="no"?>
<svg
   width="50"
   height="50"
   viewBox="0 0 50 50"
   version="1.1"
   xml:space="preserve"
   style="clip-rule:evenodd;fill-rule:evenodd;stroke-linejoin:round;stroke-miterlimit:2"
   id="svg14"
   sodipodi:docname="logo.svg"
   inkscape:version="1.2.2 (1:1.2.2+202305151914+b0a8486541)"
   xmlns:inkscape="http://www.inkscape.org/namespaces/inkscape"
   xmlns:sodipodi="http://sodipodi.sourceforge.net/DTD/sodipodi-0.dtd"
   xmlns="http://www.w3.org/2000/svg"
   xmlns:svg="http://www.w3.org/2000/svg"><defs
   id="defs18" /><sodipodi:namedview
   id="namedview16"
   pagecolor="#ffffff"
   bordercolor="#000000"
   borderopacity="0.25"
   inkscape:showpageshadow="2"
   inkscape:pageopacity="0.0"
   inkscape:pagecheckerboard="0"
   inkscape:deskcolor="#d1d1d1"
   showgrid="false"
   inkscape:zoom="13.6"
   inkscape:cx="24.301471"
   inkscape:cy="13.75"
   inkscape:window-width="1920"
   inkscape:window-height="1052"
   inkscape:window-x="0"
   inkscape:window-y="28"
   inkscape:window-maximized="1"
   inkscape:current-layer="svg14" />
    <g
   transform="matrix(0.17812104,0,0,0.17812104,-19.53026,-3.7236203)"
   id="g4"
   style="fill:#0072c2;fill-opacity:1">
        <path
   d="m 250,20.905 c -77.515,0.002 -140.354,62.839 -140.354,140.354 0,77.516 62.839,140.354 140.354,140.354 77.516,0 140.354,-62.838 140.354,-140.354 C 390.354,83.744 327.515,20.905 250,20.905 Z m 0.769,249.9 c -60.448,0 -109.451,-49.003 -109.451,-109.451 0,-60.446 49.003,-109.449 109.451,-109.449 60.447,0 109.45,49.003 109.45,109.449 0,60.448 -49.003,109.451 -109.45,109.451 z m 32.788,-96.51 c 22.505,-1.615 39.76,-15.324 38.938,-37.851 -0.821,-22.525 -19.191,-37.253 -34.588,-37.198 l -60.366,0.218 c -1.278,0.076 -2.466,0.323 -3.559,0.707 -5.279,1.762 -9.084,6.744 -9.084,12.617 0,6.092 4.099,11.228 9.689,12.802 1.053,0.365 2.124,0.583 3.172,0.631 h 58.626 c 3.519,0 10.094,3.253 10.121,10.666 0.022,6.445 -5.585,10.434 -11.669,10.434 h -73.394 c -17.592,0.292 -32.946,15.478 -32.956,32.521 v 29.546 c 0,6.72 5.452,12.409 12.617,12.765 7.166,0.356 14.358,-4.661 14.358,-13.138 v -25.148 c 0.197,-4.419 3.464,-9.042 7.395,-9.353 l 19.363,0.216 c 16.676,1.669 46.804,29.731 70.807,45.9 3.49,2.728 12.21,2.322 16.205,-2.393 3.995,-4.713 4.843,-13.529 0.435,-17.619 z m -91.374,-47.784 c 7.578,0 13.721,-6.143 13.721,-13.721 0,-7.577 -6.143,-13.722 -13.721,-13.722 -7.577,0 -13.72,6.145 -13.72,13.722 0,7.578 6.143,13.721 13.72,13.721 z"
   style="fill:#0072c2;fill-opacity:1"
   id="path2" />
    </g>
    
</svg>
